<?xml version="1.0" encoding="utf-8"?>
<!-- Generator: Adobe Illustrator 16.0.0, SVG Export Plug-In . SVG Version: 6.00 Build 0)  -->
<!DOCTYPE svg PUBLIC "-//W3C//DTD SVG 1.1//EN" "http://www.w3.org/Graphics/SVG/1.1/DTD/svg11.dtd">
<svg version="1.1" id="Layer_1" xmlns="http://www.w3.org/2000/svg" xmlns:xlink="http://www.w3.org/1999/xlink" x="0px" y="0px"
	 width="32px" height="27.605px" viewBox="0 0 32 27.605" enable-background="new 0 0 32 27.605" xml:space="preserve">
<g>
	<path fill-rule="evenodd" clip-rule="evenodd" fill="#FFFFFF" d="M17.824,13.303c0,1.628,0.039,2.983-0.781,4.431
		c-0.663,1.176-1.719,1.899-2.891,1.899c-1.602,0-2.541-1.222-2.541-3.03c0-3.557,3.192-4.204,6.213-4.204V13.303z M22.036,23.488
		c-0.276,0.248-0.676,0.265-0.986,0.096c-1.389-1.152-1.637-1.685-2.395-2.783c-2.293,2.337-3.917,3.037-6.887,3.037
		c-3.517,0-6.252-2.17-6.252-6.511c0-3.391,1.836-5.697,4.455-6.827c2.266-0.995,5.432-1.176,7.854-1.448V8.51
		c0-0.995,0.079-2.169-0.507-3.029c-0.508-0.769-1.485-1.085-2.345-1.085c-1.593,0-3.011,0.816-3.357,2.508
		c-0.073,0.376-0.347,0.75-0.726,0.769L6.841,7.233C6.499,7.156,6.118,6.882,6.217,6.36c0.93-4.911,5.365-6.395,9.341-6.395
		c2.032,0,4.689,0.542,6.291,2.08c2.031,1.899,1.837,4.432,1.837,7.19v6.507c0,1.958,0.812,2.816,1.576,3.871
		c0.267,0.381,0.327,0.832-0.013,1.109c-0.854,0.717-2.371,2.033-3.204,2.775L22.036,23.488z"/>
</g>
<g>
	<path fill-rule="evenodd" clip-rule="evenodd" fill="#F8991D" d="M28.924,23.645c-3.503,2.586-8.582,3.961-12.956,3.961
		c-6.13,0-11.65-2.267-15.827-6.038c-0.328-0.296-0.036-0.7,0.358-0.472c4.507,2.623,10.08,4.202,15.836,4.202
		c3.882,0,8.151-0.806,12.079-2.472C29.007,22.575,29.504,23.217,28.924,23.645z"/>
	<path fill-rule="evenodd" clip-rule="evenodd" fill="#F8991D" d="M30.382,21.98c-0.448-0.574-2.962-0.272-4.091-0.137
		c-0.343,0.041-0.396-0.258-0.087-0.475c2.005-1.408,5.291-1.002,5.673-0.53c0.385,0.476-0.101,3.771-1.98,5.343
		c-0.289,0.241-0.563,0.112-0.436-0.207C29.884,24.919,30.831,22.555,30.382,21.98z"/>
</g>
</svg>
