<?xml version="1.0" encoding="utf-8"?>
<!-- Generator: Adobe Illustrator 16.0.0, SVG Export Plug-In . SVG Version: 6.00 Build 0)  -->
<!DOCTYPE svg PUBLIC "-//W3C//DTD SVG 1.1//EN" "http://www.w3.org/Graphics/SVG/1.1/DTD/svg11.dtd">
<svg version="1.1" id="Layer_1" xmlns="http://www.w3.org/2000/svg" xmlns:xlink="http://www.w3.org/1999/xlink" x="0px" y="0px"
	 width="18px" height="18px" viewBox="-0.45 0 18 18" enable-background="new -0.45 0 18 18" xml:space="preserve">
<g>
	<path fill-rule="evenodd" clip-rule="evenodd" fill="#667788" d="M3.55,17.5c-1.93,0-3.5-1.57-3.5-3.5V4c0-1.93,1.57-3.5,3.5-3.5
		h10c1.93,0,3.5,1.57,3.5,3.5v10c0,1.93-1.57,3.5-3.5,3.5H3.55z"/>
	<path fill="#75D1EF" d="M13.55,1c1.654,0,3,1.346,3,3v10c0,1.654-1.346,3-3,3h-10c-1.654,0-3-1.346-3-3V4c0-1.654,1.346-3,3-3
		H13.55 M13.55,0h-10c-2.209,0-4,1.791-4,4v10c0,2.21,1.791,4,4,4h10c2.209,0,4-1.79,4-4V4C17.55,1.791,15.759,0,13.55,0L13.55,0z"
		/>
</g>
<path fill-rule="evenodd" clip-rule="evenodd" fill="#FFFFFF" d="M12.84,4l-6.23,6.5L4.26,8.04L2.55,9.83L6.54,14l0.069-0.07
	L6.68,14l7.87-8.21L12.84,4z"/>
</svg>
