<?xml version="1.0" encoding="utf-8"?>
<!-- Generator: Adobe Illustrator 16.0.0, SVG Export Plug-In . SVG Version: 6.00 Build 0)  -->
<!DOCTYPE svg PUBLIC "-//W3C//DTD SVG 1.1//EN" "http://www.w3.org/Graphics/SVG/1.1/DTD/svg11.dtd">
<svg version="1.1" id="Layer_1" xmlns="http://www.w3.org/2000/svg" xmlns:xlink="http://www.w3.org/1999/xlink" x="0px" y="0px"
	 width="40px" height="32px" viewBox="0 0 40 32" enable-background="new 0 0 40 32" xml:space="preserve">
<path fill-rule="evenodd" clip-rule="evenodd" fill="#667788" d="M33.133,25.65C37.318,23.006,40,18.963,40,14.416
	C40,6.45,31.784,0,21.634,0C11.934,0,4,5.894,3.333,13.372c2.15-1.313,4.817-2.105,7.717-2.105c7.067,0,12.817,4.665,12.817,10.425
	c0,2.745-1.318,5.239-3.434,7.091c0.399,0.032,0.8,0.032,1.2,0.032c2.067,0,4.034-0.252,5.883-0.757
	c1.383,1.685,4.85,4.716,10.65,2.931C38.167,30.988,34.216,29.826,33.133,25.65z M11.05,13.018C4.95,13.018,0,16.892,0,21.691
	c0,2.729,1.617,5.172,4.134,6.771C3.483,30.972,1.1,31.68,1.1,31.68c3.5,1.059,5.583-0.76,6.416-1.77
	c1.118,0.303,2.301,0.455,3.534,0.455c6.117,0,11.066-3.873,11.066-8.674C22.116,16.892,17.167,13.018,11.05,13.018z"/>
</svg>
