<?xml version="1.0" encoding="utf-8"?>
<!-- Generator: Adobe Illustrator 16.0.0, SVG Export Plug-In . SVG Version: 6.00 Build 0)  -->
<!DOCTYPE svg PUBLIC "-//W3C//DTD SVG 1.1//EN" "http://www.w3.org/Graphics/SVG/1.1/DTD/svg11.dtd">
<svg version="1.1" id="Layer_1" xmlns="http://www.w3.org/2000/svg" xmlns:xlink="http://www.w3.org/1999/xlink" x="0px" y="0px"
	 width="37.086px" height="48px" viewBox="0 0 37.086 48" enable-background="new 0 0 37.086 48" xml:space="preserve">
<path fill="#77D0EE" d="M35.778,0H1.308C0.584,0,0,0.585,0,1.308v2.604h3.982c0.969,0,1.758,0.789,1.758,1.758
	c0,0.968-0.789,1.755-1.758,1.755H0v1.578h3.982c0.969,0,1.758,0.789,1.758,1.758c0,0.968-0.789,1.754-1.758,1.754H0v1.58h3.982
	c0.969,0,1.758,0.788,1.758,1.757c0,0.967-0.789,1.755-1.758,1.755H0v1.579h3.982c0.969,0,1.758,0.789,1.758,1.757
	c0,0.968-0.789,1.756-1.758,1.756H0v1.578h3.982c0.969,0,1.758,0.79,1.758,1.758c0,0.968-0.789,1.756-1.758,1.756H0v1.577h3.982
	c0.969,0,1.758,0.79,1.758,1.758S4.951,32.88,3.982,32.88H0v1.577h3.982c0.969,0,1.758,0.79,1.758,1.758s-0.789,1.756-1.758,1.756H0
	v1.577h3.982c0.969,0,1.758,0.79,1.758,1.758s-0.789,1.756-1.758,1.756H0v3.629C0,47.414,0.584,48,1.308,48h34.47
	c0.723,0,1.309-0.587,1.309-1.31V1.308C37.086,0.585,36.5,0,35.778,0z M29.004,14.846c0,0.765-0.402,1.383-0.898,1.383H13.26
	c-0.497,0-0.899-0.618-0.899-1.383V9.127c0-0.765,0.402-1.382,0.899-1.382h14.846c0.496,0,0.898,0.618,0.898,1.382V14.846z"/>
</svg>
