<?xml version="1.0" encoding="utf-8"?>
<!-- Generator: Adobe Illustrator 16.0.0, SVG Export Plug-In . SVG Version: 6.00 Build 0)  -->
<!DOCTYPE svg PUBLIC "-//W3C//DTD SVG 1.1//EN" "http://www.w3.org/Graphics/SVG/1.1/DTD/svg11.dtd">
<svg version="1.1" id="Layer_1" xmlns="http://www.w3.org/2000/svg" xmlns:xlink="http://www.w3.org/1999/xlink" x="0px" y="0px"
	 width="24px" height="16px" viewBox="0 0 24 16" enable-background="new 0 0 24 16" xml:space="preserve">
<g>
	<path fill-rule="evenodd" clip-rule="evenodd" fill="#FFFFFF" d="M16.762,16H0c0-0.022,0-1.279,0-1.463v-0.419
		c0,0,0-1.12,2.088-2.126c0.998-0.487,2.506-1.76,4.708-2.194C6.217,9.143,5.798,8.083,5.356,6.857
		c-0.267-0.724-0.32-3.855-0.183-4.426C5.653,0.526,6.895,0,8.357,0c1.448,0,2.69,0.526,3.17,2.431
		c0.16,0.571,0.084,3.703-0.16,4.426c-0.441,1.227-0.884,2.263-1.439,2.941c2.225,0.419,3.702,1.685,4.731,2.194
		c2.079,1.006,2.103,2.126,2.103,2.126v0.358C16.762,14.689,16.762,15.978,16.762,16z"/>
	<path fill-rule="evenodd" clip-rule="evenodd" fill="#FFFFFF" d="M24,3.992L18.289,8V5.396c-1.264,0-1.506,0.056-2.031,0.138
		C13.079,5.909,12.236,8,12.236,8c0-5.077,6.053-5.608,6.053-5.608V0L24,3.992z"/>
</g>
</svg>
