<?xml version="1.0" encoding="utf-8"?>
<!-- Generator: Adobe Illustrator 16.0.0, SVG Export Plug-In . SVG Version: 6.00 Build 0)  -->
<!DOCTYPE svg PUBLIC "-//W3C//DTD SVG 1.1//EN" "http://www.w3.org/Graphics/SVG/1.1/DTD/svg11.dtd">
<svg version="1.1" id="Layer_1" xmlns="http://www.w3.org/2000/svg" xmlns:xlink="http://www.w3.org/1999/xlink" x="0px" y="0px"
	 width="17.1px" height="18px" viewBox="0 0 17.1 18" enable-background="new 0 0 17.1 18" xml:space="preserve">
<path fill-rule="evenodd" clip-rule="evenodd" d="M7.812,4.23C7.578,2.349,6.309,0.837,4.977,0.792S2.754,2.187,2.979,4.077
	c0.233,1.881,1.503,3.447,2.835,3.492C7.146,7.614,8.036,6.12,7.812,4.23z M5.634,11.232c-1.989-0.027-3.762,1.305-3.762,2.897
	c0,1.629,1.431,2.979,3.419,2.979c2.791,0,3.763-1.269,3.763-2.897c0-0.197-0.019-0.387-0.063-0.575
	c-0.217-0.919-0.99-1.378-2.07-2.188C6.534,11.313,6.102,11.232,5.634,11.232z M8.001,0.9C9.09,1.35,9.666,2.718,9.666,4.122
	c0,1.179-0.603,2.187-1.458,2.907c-0.837,0.711-0.99,0.999-0.99,1.602c0,0.504,0.891,1.377,1.358,1.728
	c1.368,1.045,1.81,2.008,1.81,3.628c0,2.016-1.81,4.014-5.085,4.014C2.421,18,0,16.739,0,14.725c0-2.044,2.214-4.015,5.084-4.015
	l0.9-0.009c-0.396-0.414-0.702-0.918-0.702-1.54c0-0.369,0.108-0.729,0.261-1.044C5.382,8.136,5.229,8.136,5.058,8.136
	c-2.358,0-3.942-1.809-3.942-4.05C1.116,1.89,3.303,0,5.625,0H10.8L9.639,0.9H8.001z M17.1,4.5h-1.8v1.8h-1.8V4.5h-1.8V2.7h1.8V0.9
	h1.8v1.8h1.8V4.5z"/>
</svg>
