<?xml version="1.0" encoding="utf-8"?>
<!-- Generator: Adobe Illustrator 16.0.0, SVG Export Plug-In . SVG Version: 6.00 Build 0)  -->
<!DOCTYPE svg PUBLIC "-//W3C//DTD SVG 1.1//EN" "http://www.w3.org/Graphics/SVG/1.1/DTD/svg11.dtd">
<svg version="1.1" id="Layer_1" xmlns="http://www.w3.org/2000/svg" xmlns:xlink="http://www.w3.org/1999/xlink" x="0px" y="0px"
	 width="49.674px" height="46.012px" viewBox="0 0 49.674 46.012" enable-background="new 0 0 49.674 46.012" xml:space="preserve">
<g>
	<g>
		<path fill="#77D0EE" d="M19.336,39.188l-1.977,6.027c0,0.439,0.438,0.797,0.977,0.797h13.002c0.539,0,0.977-0.357,0.977-0.797
			l-1.979-6.027H19.336z"/>
		<path fill="#77D0EE" d="M46.125,0H3.547C1.588,0,0,1.588,0,3.546V34.19c0,1.959,1.588,3.547,3.547,3.547h42.579
			c1.961,0,3.549-1.588,3.549-3.547V3.546C49.674,1.588,48.086,0,46.125,0z M46.95,34.303H2.55V2.32h44.4V34.303z"/>
	</g>
	<g>
		<path fill="#77D0EE" d="M31.573,5.816c-4.925,2.434-8.197,2.24-13.291-0.039c-8.922,0-14.035,24-7.362,24
			c5.631,0,6.389-7.019,14.099-7.019c6.237,0,9.898,6.931,14.057,6.931C45.747,29.69,38.971,5.816,31.573,5.816z M18.342,17.775
			c-2.471,0-4.473-2.001-4.473-4.468c0-2.465,2.002-4.467,4.473-4.467c2.467,0,4.467,2.002,4.467,4.467
			C22.809,15.773,20.809,17.775,18.342,17.775z M29.535,13.768c-0.729-0.227-1.136-1.003-0.905-1.734
			c0.228-0.728,1.004-1.133,1.733-0.904c0.729,0.225,1.139,1,0.908,1.731C31.042,13.594,30.264,13.996,29.535,13.768z
			 M36.552,14.934c-0.231,0.73-1.007,1.135-1.736,0.908c-0.728-0.228-1.136-1.003-0.907-1.737c0.23-0.729,1.01-1.134,1.734-0.909
			C36.374,13.428,36.78,14.202,36.552,14.934z M34.77,11.694c-0.233,0.731-1.007,1.135-1.737,0.908
			c-0.727-0.228-1.135-1.002-0.907-1.737c0.23-0.73,1.009-1.133,1.734-0.908C34.591,10.188,34.998,10.961,34.77,11.694z
			 M32.91,15.989c-0.233,0.732-1.008,1.136-1.736,0.909c-0.729-0.228-1.137-1.003-0.909-1.737c0.231-0.729,1.01-1.133,1.735-0.908
			C32.729,14.482,33.137,15.257,32.91,15.989z M20.599,13.374c0,1.274-1.029,2.305-2.302,2.305c-1.273,0-2.303-1.031-2.303-2.305
			c0-1.268,1.03-2.3,2.303-2.3C19.57,11.073,20.599,12.106,20.599,13.374z"/>
	</g>
</g>
</svg>
