<?xml version="1.0" encoding="utf-8"?>
<!-- Generator: Adobe Illustrator 16.0.0, SVG Export Plug-In . SVG Version: 6.00 Build 0)  -->
<!DOCTYPE svg PUBLIC "-//W3C//DTD SVG 1.1//EN" "http://www.w3.org/Graphics/SVG/1.1/DTD/svg11.dtd">
<svg version="1.1" id="Layer_1" xmlns="http://www.w3.org/2000/svg" xmlns:xlink="http://www.w3.org/1999/xlink" x="0px" y="0px"
	 width="40px" height="30.4px" viewBox="0 0 40 30.4" enable-background="new 0 0 40 30.4" xml:space="preserve">
<path fill-rule="evenodd" clip-rule="evenodd" fill="#667788" d="M6.4,8H1.6C0.72,8,0,7.28,0,6.4V1.6C0,0.721,0.72,0,1.6,0h4.8
	C7.28,0,8,0.721,8,1.6v4.8C8,7.28,7.28,8,6.4,8z M6.4,19.199H1.6c-0.88,0-1.6-0.719-1.6-1.6v-4.8c0-0.879,0.72-1.6,1.6-1.6h4.8
	c0.88,0,1.6,0.721,1.6,1.6v4.8C8,18.48,7.28,19.199,6.4,19.199z M6.4,30.4H1.6c-0.88,0-1.6-0.721-1.6-1.6V24
	c0-0.879,0.72-1.6,1.6-1.6h4.8C7.28,22.4,8,23.121,8,24v4.801C8,29.68,7.28,30.4,6.4,30.4z M38.399,8H12.8
	c-0.879,0-1.6-0.72-1.6-1.6V1.6c0-0.879,0.72-1.6,1.6-1.6h25.6C39.279,0,40,0.721,40,1.6v4.8C40,7.28,39.279,8,38.399,8z
	 M38.399,19.199H12.8c-0.879,0-1.6-0.719-1.6-1.6v-4.8c0-0.879,0.72-1.6,1.6-1.6h25.6c0.88,0,1.601,0.721,1.601,1.6v4.8
	C40,18.48,39.279,19.199,38.399,19.199z M38.399,30.4H12.8c-0.879,0-1.6-0.721-1.6-1.6V24c0-0.879,0.72-1.6,1.6-1.6h25.6
	C39.279,22.4,40,23.121,40,24v4.801C40,29.68,39.279,30.4,38.399,30.4z"/>
</svg>
