<?xml version="1.0" encoding="utf-8"?>
<!-- Generator: Adobe Illustrator 16.0.0, SVG Export Plug-In . SVG Version: 6.00 Build 0)  -->
<!DOCTYPE svg PUBLIC "-//W3C//DTD SVG 1.1//EN" "http://www.w3.org/Graphics/SVG/1.1/DTD/svg11.dtd">
<svg version="1.1" id="Layer_1" xmlns="http://www.w3.org/2000/svg" xmlns:xlink="http://www.w3.org/1999/xlink" x="0px" y="0px"
	 width="15px" height="18px" viewBox="0 0 15 18" enable-background="new 0 0 15 18" xml:space="preserve">
<path fill="#0F151C" d="M11.25,5.25c0-2.07-1.68-3.75-3.75-3.75c-2.07,0-3.75,1.68-3.75,3.75v1.5h7.5V5.25z M6,15h3l-0.945-2.361
	C8.609,12.42,9,11.88,9,11.25c0-0.825-0.676-1.5-1.5-1.5S6,10.425,6,11.25c0,0.63,0.39,1.17,0.945,1.389L6,15z M13.5,18h-12
	C0.675,18,0,17.324,0,16.5V8.25c0-0.825,0.675-1.5,1.5-1.5h0.75V5.385C2.25,2.415,4.455,0,7.5,0s5.25,2.415,5.25,5.385V6.75h0.75
	c0.824,0,1.5,0.675,1.5,1.5v8.25C15,17.324,14.324,18,13.5,18z"/>
</svg>
