<?xml version="1.0" encoding="utf-8"?>
<!-- Generator: Adobe Illustrator 16.0.0, SVG Export Plug-In . SVG Version: 6.00 Build 0)  -->
<!DOCTYPE svg PUBLIC "-//W3C//DTD SVG 1.1//EN" "http://www.w3.org/Graphics/SVG/1.1/DTD/svg11.dtd">
<svg version="1.1" id="Layer_1" xmlns="http://www.w3.org/2000/svg" xmlns:xlink="http://www.w3.org/1999/xlink" x="0px" y="0px"
	 width="46px" height="46px" viewBox="0 0 46 46" enable-background="new 0 0 46 46" xml:space="preserve">
<g>
	<path fill="#121923" d="M46,23c0-1.912-0.234-3.768-0.675-5.544h-4.608V12.96H24.834c-6.743,0-10.239,4.496-10.239,9.69
		c0,5.196,3.696,9.542,10.338,9.542h15.783v-4.496h4.795v0.033C45.831,26.201,46,24.621,46,23z"/>
	<path fill="#121923" d="M40.717,37.285H24.834C14.544,37.285,9.7,30.293,9.7,22.65c0-7.342,4.695-14.884,15.134-14.884H40.23
		C36.016,3.003,29.859,0,23,0C10.297,0,0,10.297,0,23c0,12.702,10.297,23,23,23c7.128,0,13.498-3.242,17.717-8.334V37.285z"/>
</g>
</svg>
