<?xml version="1.0" encoding="utf-8"?>
<!-- Generator: Adobe Illustrator 16.0.0, SVG Export Plug-In . SVG Version: 6.00 Build 0)  -->
<!DOCTYPE svg PUBLIC "-//W3C//DTD SVG 1.1//EN" "http://www.w3.org/Graphics/SVG/1.1/DTD/svg11.dtd">
<svg version="1.1" id="Layer_1" xmlns="http://www.w3.org/2000/svg" xmlns:xlink="http://www.w3.org/1999/xlink" x="0px" y="0px"
	 width="31.543px" height="9.639px" viewBox="0 0 31.543 9.639" enable-background="new 0 0 31.543 9.639" xml:space="preserve">
<g>
	<path fill-rule="evenodd" clip-rule="evenodd" fill="#F06048" d="M15.775,9.639c-2.664,0-4.818-2.156-4.818-4.82S13.112,0,15.775,0
		c2.656,0,4.811,2.155,4.811,4.819S18.432,9.639,15.775,9.639z"/>
	<path fill-rule="evenodd" clip-rule="evenodd" fill="#F06048" d="M4.819,9.639C2.156,9.639,0,7.482,0,4.819S2.156,0,4.819,0
		c2.655,0,4.81,2.155,4.81,4.819S7.474,9.639,4.819,9.639z"/>
	<path fill-rule="evenodd" clip-rule="evenodd" fill="#F06048" d="M26.732,9.639c-2.662,0-4.818-2.156-4.818-4.82S24.07,0,26.732,0
		c2.656,0,4.811,2.155,4.811,4.819S29.389,9.639,26.732,9.639z"/>
</g>
</svg>
