<?xml version="1.0" encoding="utf-8"?>
<!-- Generator: Adobe Illustrator 16.0.0, SVG Export Plug-In . SVG Version: 6.00 Build 0)  -->
<!DOCTYPE svg PUBLIC "-//W3C//DTD SVG 1.1//EN" "http://www.w3.org/Graphics/SVG/1.1/DTD/svg11.dtd">
<svg version="1.1" id="Layer_1" xmlns="http://www.w3.org/2000/svg" xmlns:xlink="http://www.w3.org/1999/xlink" x="0px" y="0px"
	 width="40.418px" height="48px" viewBox="0 0 40.418 48" enable-background="new 0 0 40.418 48" xml:space="preserve">
<g>
	<path fill="#77D0EE" d="M40.024,10.922l-9.65-10.445C30.094,0.173,29.698,0,29.286,0H13.51c-2.295,0-4.163,1.868-4.163,4.163v1.912
		h2.968V4.163c0-0.659,0.536-1.195,1.195-1.195h14.539v10.12c0,0.383,0.311,0.692,0.693,0.692h8.707v22.418
		c0,0.658-0.535,1.195-1.193,1.195h-3.719v2.967h3.719c2.293,0,4.162-1.867,4.162-4.162v-24.27
		C40.418,11.555,40.276,11.196,40.024,10.922z M29.436,3.833l7.908,8.562h-7.908V3.833z"/>
	<path fill="#77D0EE" d="M21.028,8.116c-0.283-0.304-0.678-0.477-1.09-0.477H4.161C1.866,7.639,0,9.506,0,11.801v32.036
		C0,46.132,1.866,48,4.161,48h22.746c2.295,0,4.162-1.868,4.162-4.163V19.567c0-0.374-0.139-0.733-0.393-1.007L21.028,8.116z
		 M27.493,19.488h-6.678v-7.229L27.493,19.488z M26.907,45.032H4.161c-0.659,0-1.193-0.535-1.193-1.194V11.801
		c0-0.659,0.535-1.195,1.193-1.195h15.127l0.139,0.151v9.422c0,0.383,0.31,0.693,0.693,0.693h7.981v22.964
		C28.102,44.497,27.565,45.032,26.907,45.032z"/>
</g>
</svg>
