<?xml version="1.0" encoding="utf-8"?>
<!-- Generator: Adobe Illustrator 16.0.0, SVG Export Plug-In . SVG Version: 6.00 Build 0)  -->
<!DOCTYPE svg PUBLIC "-//W3C//DTD SVG 1.1//EN" "http://www.w3.org/Graphics/SVG/1.1/DTD/svg11.dtd">
<svg version="1.1" id="Layer_1" xmlns="http://www.w3.org/2000/svg" xmlns:xlink="http://www.w3.org/1999/xlink" x="0px" y="0px"
	 width="23.298px" height="31.268px" viewBox="0 0 23.298 31.268" enable-background="new 0 0 23.298 31.268" xml:space="preserve">
<path fill-rule="evenodd" clip-rule="evenodd" fill="#F15C22" d="M23.298,15.709c-0.004,2.142-0.574,4.126-1.605,5.995
	c-0.809,1.466-1.729,2.854-2.809,4.132c-0.951,1.125-1.994,2.159-3.134,3.095c-1.031,0.848-2.124,1.605-3.28,2.271
	c-0.051,0.029-0.103,0.058-0.155,0.084c-0.222,0.111-0.393,0.104-0.503-0.018c-0.164-0.182-0.17-0.408-0.042-0.617
	c0.237-0.387,0.48-0.772,0.686-1.176c0.276-0.539,0.46-1.116,0.576-1.712c0.052-0.266-0.049-0.384-0.32-0.381
	c-0.278,0.003-0.556,0.023-0.833,0.033c-0.718,0.024-1.431-0.032-2.14-0.148c-2.001-0.33-3.792-1.136-5.374-2.401
	c-1.27-1.016-2.285-2.247-3.035-3.688c-0.766-1.471-1.19-3.039-1.302-4.696c-0.159-2.354,0.365-4.548,1.485-6.618
	c1.109-2.049,2.454-3.922,4.083-5.589c1.622-1.659,3.446-3.053,5.466-4.191c0.132-0.074,0.277-0.13,0.404-0.021
	c0.072,0.062,0.15,0.184,0.137,0.265c-0.028,0.186-0.09,0.374-0.176,0.541c-0.22,0.427-0.48,0.834-0.688,1.267
	c-0.258,0.542-0.431,1.117-0.528,1.711c-0.029,0.176,0.03,0.242,0.208,0.221c0.989-0.117,1.976-0.083,2.958,0.06
	c1.058,0.154,2.075,0.456,3.052,0.896c1.032,0.465,1.979,1.059,2.83,1.803c2.106,1.843,3.4,4.147,3.882,6.905
	C23.187,13.988,23.281,15.309,23.298,15.709z M11.563,20.132c0.312-0.039,0.628-0.057,0.935-0.12
	c1.002-0.206,1.847-0.696,2.506-1.479c0.884-1.048,1.245-2.254,1.001-3.613c-0.172-0.957-0.643-1.758-1.355-2.418
	c-0.811-0.751-1.771-1.152-2.868-1.197c-1.114-0.046-2.13,0.268-2.993,0.986c-1.18,0.982-1.787,2.233-1.653,3.79
	C7.328,18.326,9.302,20.113,11.563,20.132z"/>
</svg>
