<?xml version="1.0" encoding="utf-8"?>
<!-- Generator: Adobe Illustrator 16.0.0, SVG Export Plug-In . SVG Version: 6.00 Build 0)  -->
<!DOCTYPE svg PUBLIC "-//W3C//DTD SVG 1.1//EN" "http://www.w3.org/Graphics/SVG/1.1/DTD/svg11.dtd">
<svg version="1.1" id="Layer_1" xmlns="http://www.w3.org/2000/svg" xmlns:xlink="http://www.w3.org/1999/xlink" x="0px" y="0px"
	 width="30px" height="30px" viewBox="0 0.2 30 30" enable-background="new 0 0.2 30 30" xml:space="preserve">
<path fill-rule="evenodd" clip-rule="evenodd" fill="#667788" d="M28.387,19.367H1.72c-0.917,0-1.667-0.75-1.667-1.666V12.7
	c0-0.916,0.75-1.667,1.667-1.667h26.667c0.917,0,1.667,0.751,1.667,1.667v5.001C30.054,18.617,29.304,19.367,28.387,19.367z"/>
<path fill-rule="evenodd" clip-rule="evenodd" fill="#667788" d="M10.833,28.533V1.867c0-0.917,0.75-1.667,1.666-1.667H17.5
	c0.916,0,1.667,0.75,1.667,1.667v26.666c0,0.917-0.751,1.667-1.667,1.667h-5.001C11.583,30.2,10.833,29.45,10.833,28.533z"/>
</svg>
