<?xml version="1.0" encoding="utf-8"?>
<!-- Generator: Adobe Illustrator 16.0.0, SVG Export Plug-In . SVG Version: 6.00 Build 0)  -->
<!DOCTYPE svg PUBLIC "-//W3C//DTD SVG 1.1//EN" "http://www.w3.org/Graphics/SVG/1.1/DTD/svg11.dtd">
<svg version="1.1" id="Layer_1" xmlns="http://www.w3.org/2000/svg" xmlns:xlink="http://www.w3.org/1999/xlink" x="0px" y="0px"
	 width="23.327px" height="18px" viewBox="0 0 23.327 18" enable-background="new 0 0 23.327 18" xml:space="preserve">
<g>
	<path fill-rule="evenodd" clip-rule="evenodd" fill="#FFFFFF" d="M8.723,0c1.015,0.189,2.012,0.459,3.004,0.74
		c0.568,0.165,1.134,0.336,1.696,0.518c0.884,0.281,1.764,0.6,2.563,1.075c0.358,0.217,0.703,0.463,0.997,0.763
		c0.318,0.312,0.579,0.681,0.771,1.083c0.349,0.729,0.468,1.542,0.503,2.343c0.017,0.522,0.016,1.049-0.082,1.564
		c-0.08,0.448-0.225,0.89-0.465,1.278c-0.211,0.344-0.505,0.642-0.862,0.833c-0.342,0.185-0.734,0.272-1.123,0.265
		c-0.589,0.007-1.161-0.182-1.689-0.428c-0.01-1.758-0.001-3.517-0.004-5.274c-0.004-0.318,0.018-0.64-0.047-0.953
		c-0.045-0.243-0.144-0.488-0.335-0.653c-0.126-0.114-0.29-0.179-0.455-0.213c-0.167-0.032-0.345,0.039-0.447,0.173
		c-0.172,0.215-0.217,0.499-0.226,0.766c-0.001,4.706,0.002,9.413-0.001,14.12c-1.266-0.401-2.532-0.804-3.798-1.206
		C8.722,11.196,8.723,5.599,8.723,0z"/>
	<path fill-rule="evenodd" clip-rule="evenodd" fill="#FFFFFF" d="M3.032,11.91c1.65-0.584,3.3-1.174,4.952-1.757
		c0.002,0.648,0,1.296,0.001,1.945c-0.001,0.088,0.005,0.176-0.007,0.264c-1.305,0.463-2.608,0.934-3.912,1.399
		c-0.181,0.068-0.367,0.146-0.506,0.283c-0.065,0.064-0.118,0.16-0.083,0.253c0.044,0.109,0.156,0.169,0.259,0.214
		c0.286,0.116,0.599,0.133,0.903,0.146c0.34-0.005,0.681-0.03,1.014-0.104c0.225-0.045,0.441-0.12,0.656-0.201
		c0.558-0.201,1.114-0.404,1.673-0.604c0.004,0.549,0.001,1.098,0.002,1.646c-0.002,0.109,0.005,0.22-0.006,0.329
		c-0.686,0.123-1.379,0.206-2.076,0.217c-1.402,0.032-2.809-0.185-4.141-0.623c-0.437-0.127-0.871-0.296-1.236-0.573
		c-0.201-0.155-0.381-0.351-0.473-0.591c-0.076-0.204-0.071-0.438,0.025-0.636c0.092-0.196,0.252-0.351,0.429-0.472
		c0.41-0.282,0.861-0.498,1.319-0.69C2.22,12.188,2.629,12.058,3.032,11.91z"/>
	<path fill-rule="evenodd" clip-rule="evenodd" fill="#FFFFFF" d="M16.313,11.172c0.375-0.043,0.752-0.054,1.128-0.066
		c1.238,0.004,2.483,0.158,3.667,0.53c0.232,0.07,0.458,0.162,0.689,0.235c0.412,0.15,0.826,0.334,1.156,0.63
		c0.198,0.182,0.37,0.426,0.372,0.704c0.012,0.227-0.091,0.444-0.238,0.611c-0.279,0.314-0.649,0.529-1.021,0.718
		c-0.396,0.201-0.82,0.331-1.235,0.485c-2.53,0.908-5.061,1.816-7.59,2.726c-0.001-0.708,0-1.417-0.001-2.125
		c0.004-0.028-0.012-0.078,0.028-0.085c1.925-0.686,3.85-1.372,5.775-2.06c0.26-0.097,0.54-0.167,0.761-0.344
		c0.091-0.071,0.179-0.184,0.135-0.306c-0.046-0.106-0.156-0.166-0.258-0.21c-0.289-0.114-0.603-0.136-0.909-0.145
		c-0.479,0.003-0.964,0.062-1.42,0.216c-1.371,0.481-2.74,0.968-4.111,1.446c0-0.761-0.001-1.521,0-2.282
		C14.234,11.503,15.271,11.292,16.313,11.172z"/>
</g>
</svg>
