<?xml version="1.0" encoding="utf-8"?>
<!-- Generator: Adobe Illustrator 16.0.0, SVG Export Plug-In . SVG Version: 6.00 Build 0)  -->
<!DOCTYPE svg PUBLIC "-//W3C//DTD SVG 1.1//EN" "http://www.w3.org/Graphics/SVG/1.1/DTD/svg11.dtd">
<svg version="1.1" id="Layer_1" xmlns="http://www.w3.org/2000/svg" xmlns:xlink="http://www.w3.org/1999/xlink" x="0px" y="0px"
	 width="200.268px" height="33.357px" viewBox="0 0 200.268 33.357" enable-background="new 0 0 200.268 33.357"
	 xml:space="preserve">
<g>
	<g>
		<path fill="#FFFFFF" d="M121.067,33.249h7.014V0.204h-7.014V33.249L121.067,33.249z M165.67,4.078L165.702,0
			c0,0-18.481,0.022-21.431,0.022h-11.704v4.03h9.555l3.538,0.021v4.234v24.753h6.898V8.756l-0.103-4.707L165.67,4.078L165.67,4.078
			z M169.849,22.219c0,0,6.483-12.183,6.827-12.831c0.823-1.57,2.347-1.239,3.017,0.107l6.878,12.769L169.849,22.219L169.849,22.219
			z M179.776,0.035c-2.767-0.149-4.481,2.921-5.08,3.894c-0.598,0.972-15.63,29.429-15.63,29.429h4.823l3.661-7.01l21.211,0.062
			l3.786,6.947h7.721c0,0-15.521-29.271-16.044-30.169S182.543,0.185,179.776,0.035L179.776,0.035z M111.848,0.093
			c0,0-12.091,22.654-12.763,23.922c-0.821,1.568-2.341,1.237-3.011-0.106L83.246,0.093h-7.708c0,0,15.492,29.215,16.014,30.111
			c0.523,0.896,1.677,2.998,4.439,3.147c2.762,0.149,4.474-2.916,5.07-3.887c0.598-0.97,15.601-29.372,15.601-29.372H111.848
			L111.848,0.093z M55.604,9.118c0-2.221,0.688-5.04,4.129-4.891h12.739V0.136H57.747c-6.854,0-9.197,4.161-9.197,8.982v15.127
			c0,2.742-1.582,4.893-4.229,4.893H31.385v4.091h14.827c6.902,0,9.392-3.451,9.392-8.983V9.118L55.604,9.118z M36.189,9.071
			c0-4.917-2.742-8.935-9.691-8.935H0v4.091h24.512c3.787-0.299,4.875,2.67,4.875,4.844c0,2.836-0.938,4.791-4.875,4.939H8.462
			C3.498,14.01,0,17.77,0,23.348v9.928h6.85V22.97c0-2.837,1.607-4.492,3.782-4.492h15.866
			C33.447,18.478,36.189,14.649,36.189,9.071L36.189,9.071z"/>
	</g>
</g>
</svg>
