<?xml version="1.0" encoding="utf-8"?>
<!-- Generator: Adobe Illustrator 16.0.0, SVG Export Plug-In . SVG Version: 6.00 Build 0)  -->
<!DOCTYPE svg PUBLIC "-//W3C//DTD SVG 1.1//EN" "http://www.w3.org/Graphics/SVG/1.1/DTD/svg11.dtd">
<svg version="1.1" id="Layer_1" xmlns="http://www.w3.org/2000/svg" xmlns:xlink="http://www.w3.org/1999/xlink" x="0px" y="0px"
	 width="34px" height="32px" viewBox="0 0 34 32" enable-background="new 0 0 34 32" xml:space="preserve">
<path fill="#667788" d="M16.277,0.846c0.397-1.128,1.049-1.128,1.444,0l3.046,8.194c0.396,1.126,1.698,2.06,2.903,2.087h9.278
	c1.204,0.027,1.403,0.626,0.441,1.349l-7.397,6.192c-0.949,0.724-1.457,2.239-1.103,3.38l2.692,8.78
	c0.338,1.126-0.185,1.517-1.177,0.833l-7.609-5.243c-0.99-0.683-2.605-0.683-3.596,0l-7.607,5.243
	c-0.991,0.684-1.516,0.293-1.162-0.833l2.677-8.78c0.354-1.141-0.156-2.656-1.105-3.38l-7.394-6.192
	c-0.963-0.723-0.765-1.322,0.439-1.349h9.278c1.205-0.027,2.521-0.96,2.904-2.087L16.277,0.846z"/>
</svg>
