<?xml version="1.0" encoding="utf-8"?>
<!-- Generator: Adobe Illustrator 16.0.0, SVG Export Plug-In . SVG Version: 6.00 Build 0)  -->
<!DOCTYPE svg PUBLIC "-//W3C//DTD SVG 1.1//EN" "http://www.w3.org/Graphics/SVG/1.1/DTD/svg11.dtd">
<svg version="1.1" id="Layer_1" xmlns="http://www.w3.org/2000/svg" xmlns:xlink="http://www.w3.org/1999/xlink" x="0px" y="0px"
	 width="30px" height="26px" viewBox="0 2.2 30 26" enable-background="new 0 2.2 30 26" xml:space="preserve">
<path fill-rule="evenodd" clip-rule="evenodd" fill="#667788" d="M14.993,21.698c-1.083,0-1.957,0.871-1.957,1.951
	c0,1.079,0.874,1.95,1.957,1.95c1.083,0,1.957-0.871,1.957-1.95C16.95,22.569,16.076,21.698,14.993,21.698z M16.95,9.993
	c0-0.714-0.587-1.3-1.305-1.3h-1.304c-0.718,0-1.305,0.585-1.305,1.3v7.804c0,0.714,0.587,1.299,1.305,1.299h1.304
	c0.718,0,1.305-0.585,1.305-1.299V9.993z M28.116,28.2H1.883c-1.683,0-2.361-0.871-1.527-2.327L13.479,3.348
	c0.834-1.469,2.206-1.56,3.04-0.09l13.124,22.654C30.479,27.382,29.801,28.2,28.116,28.2z"/>
</svg>
