<?xml version="1.0" encoding="utf-8"?>
<!-- Generator: Adobe Illustrator 16.0.0, SVG Export Plug-In . SVG Version: 6.00 Build 0)  -->
<!DOCTYPE svg PUBLIC "-//W3C//DTD SVG 1.1//EN" "http://www.w3.org/Graphics/SVG/1.1/DTD/svg11.dtd">
<svg version="1.1" id="Layer_1" xmlns="http://www.w3.org/2000/svg" xmlns:xlink="http://www.w3.org/1999/xlink" x="0px" y="0px"
	 width="36.08px" height="30.4px" viewBox="0 0 36.08 30.4" enable-background="new 0 0 36.08 30.4" xml:space="preserve">
<path fill="#7EFE4C" d="M31.58,15.067h-27v1.5h27V15.067z M31.58,10.567h-12v1.5h12V10.567z M31.58,6.067h-27v1.5h27V6.067z
	 M4.58,12.067h12v-1.5h-12V12.067z M33.08,24.067h-21l-6,5.999v-5.999h-3c-1.65,0-3-1.353-3-3v-18c0-1.65,1.35-3,3-3h30
	c1.649,0,3,1.35,3,3v18C36.08,22.716,34.729,24.067,33.08,24.067z"/>
</svg>
