<?xml version="1.0" encoding="utf-8"?>
<!-- Generator: Adobe Illustrator 16.0.0, SVG Export Plug-In . SVG Version: 6.00 Build 0)  -->
<!DOCTYPE svg PUBLIC "-//W3C//DTD SVG 1.1//EN" "http://www.w3.org/Graphics/SVG/1.1/DTD/svg11.dtd">
<svg version="1.1" id="Layer_1" xmlns="http://www.w3.org/2000/svg" xmlns:xlink="http://www.w3.org/1999/xlink" x="0px" y="0px"
	 width="18px" height="18px" viewBox="0 0 18 18" enable-background="new 0 0 18 18" xml:space="preserve">
<g>
	<path fill="#FFFFFF" d="M10.96,13.693v-0.141l0.295-0.294l-0.49-0.56c-0.667,0.343-1.421,0.539-2.221,0.539
		c-2.698,0-4.894-2.195-4.894-4.893c0-2.698,2.195-4.894,4.894-4.894s4.894,2.195,4.894,4.894c0,1.336-0.539,2.547-1.41,3.432
		l0.392,0.541l0.268-0.267h0.266l2.453,3.268C17.009,13.694,18,11.463,18,9c0-4.97-4.029-9-9-9s-9,4.03-9,9S4.03,18,9,18
		c1.623,0,3.141-0.436,4.455-1.187C12.346,15.433,10.96,13.693,10.96,13.693z"/>
	<path fill="#FFFFFF" d="M5.379,8.345c0,1.745,1.42,3.164,3.165,3.164c1.746,0,3.166-1.419,3.166-3.164
		c0-1.746-1.42-3.166-3.166-3.166C6.799,5.179,5.379,6.599,5.379,8.345z"/>
</g>
</svg>
