<?xml version="1.0" encoding="utf-8"?>
<!-- Generator: Adobe Illustrator 16.0.0, SVG Export Plug-In . SVG Version: 6.00 Build 0)  -->
<!DOCTYPE svg PUBLIC "-//W3C//DTD SVG 1.1//EN" "http://www.w3.org/Graphics/SVG/1.1/DTD/svg11.dtd">
<svg version="1.1" id="Layer_1" xmlns="http://www.w3.org/2000/svg" xmlns:xlink="http://www.w3.org/1999/xlink" x="0px" y="0px"
	 width="30px" height="30.4px" viewBox="0 0 30 30.4" enable-background="new 0 0 30 30.4" xml:space="preserve">
<path fill="#75D1EF" d="M18.464,12.039c0.624,0.657,0.462,1.685-0.172,2.318c-0.323,0.336-0.761,0.509-1.212,0.509
	c-0.449,0-0.795-0.127-1.153-0.428l-0.161-0.149c-0.483-0.428-1.28-1.154-2.826-1.154c-1.638,0-2.745,1.005-2.94,1.2l-5.455,5.457
	c-0.785,0.786-1.211,1.823-1.223,2.933c0,1.106,0.438,2.156,1.223,2.931c0.784,0.785,1.821,1.212,2.93,1.212
	c1.095,0,2.156-0.438,2.929-1.212l2.076-2.076c0.681-0.682,1.696-0.866,2.653-0.705c0.195,0.036,0.393,0.06,0.6,0.081
	c0.564,0.06,0.889,0.716,0.483,1.12l-4.048,4.039C10.83,29.462,9.042,30.2,7.127,30.2c-1.902,0-3.702-0.749-5.04-2.087
	C0.773,26.807,0.011,24.951,0,23.035c-0.022-1.855,0.715-3.635,2.087-4.996l6.136-6.149c1.35-1.351,3.137-2.089,5.052-2.089
	s3.702,0.738,5.04,2.089L18.464,12.039z M27.911,12.385l-6.147,6.14c-1.337,1.339-3.125,2.078-5.041,2.09
	c-1.914-0.012-3.701-0.751-5.04-2.09l-0.161-0.161c-0.611-0.657-0.461-1.674,0.173-2.32c0.323-0.321,0.761-0.496,1.223-0.496
	c0.427,0,0.83,0.151,1.143,0.429c0.242,0.265,1.233,1.223,2.778,1.304l0.185,0.012c1.097,0,2.205-0.462,2.977-1.224l5.443-5.457
	c0.797-0.785,1.224-1.823,1.224-2.932c0-1.107-0.427-2.146-1.211-2.931c-0.785-0.785-1.821-1.212-2.931-1.212
	c-1.105,0-2.154,0.438-2.939,1.212l-2.078,2.088c-0.681,0.682-1.695,0.865-2.652,0.703c-0.196-0.034-0.392-0.067-0.588-0.092
	c-0.565-0.058-0.889-0.715-0.484-1.119L17.82,2.29c1.349-1.34,3.137-2.09,5.039-2.09c1.916,0,3.701,0.75,5.052,2.089
	C29.249,3.638,30,5.427,30,7.343C30,9.246,29.249,11.035,27.911,12.385z"/>
</svg>
