<?xml version="1.0" encoding="utf-8"?>
<!-- Generator: Adobe Illustrator 16.0.0, SVG Export Plug-In . SVG Version: 6.00 Build 0)  -->
<!DOCTYPE svg PUBLIC "-//W3C//DTD SVG 1.1//EN" "http://www.w3.org/Graphics/SVG/1.1/DTD/svg11.dtd">
<svg version="1.1" id="Layer_1" xmlns="http://www.w3.org/2000/svg" xmlns:xlink="http://www.w3.org/1999/xlink" x="0px" y="0px"
	 width="30px" height="30.4px" viewBox="0 0 30 30.4" enable-background="new 0 0 30 30.4" xml:space="preserve">
<path fill-rule="evenodd" clip-rule="evenodd" fill="#667788" d="M18.464,12.039c0.624,0.657,0.462,1.684-0.172,2.318
	c-0.323,0.336-0.761,0.509-1.212,0.509c-0.449,0-0.795-0.127-1.153-0.428l-0.161-0.149c-0.484-0.428-1.28-1.154-2.826-1.154
	c-1.638,0-2.745,1.004-2.94,1.2l-5.455,5.457c-0.785,0.786-1.211,1.823-1.223,2.932c0,1.107,0.438,2.157,1.223,2.931
	c0.784,0.785,1.821,1.212,2.93,1.212c1.095,0,2.156-0.439,2.929-1.212l2.076-2.076c0.681-0.682,1.696-0.866,2.653-0.705
	c0.195,0.036,0.392,0.059,0.599,0.081c0.565,0.059,0.889,0.716,0.484,1.12l-4.048,4.039C10.83,29.462,9.042,30.2,7.127,30.2
	c-1.902,0-3.702-0.749-5.04-2.087C0.773,26.807,0.011,24.951,0,23.035c-0.022-1.856,0.715-3.635,2.087-4.996l6.136-6.15
	c1.35-1.35,3.137-2.088,5.052-2.088s3.702,0.738,5.04,2.088L18.464,12.039z M27.911,12.385l-6.147,6.139
	c-1.337,1.339-3.125,2.078-5.041,2.09c-1.914-0.012-3.701-0.751-5.04-2.09l-0.161-0.161c-0.611-0.657-0.461-1.674,0.173-2.32
	c0.323-0.322,0.761-0.496,1.223-0.496c0.427,0,0.83,0.151,1.143,0.428c0.242,0.265,1.233,1.223,2.778,1.304l0.185,0.012
	c1.096,0,2.204-0.462,2.976-1.224l5.443-5.457c0.797-0.785,1.224-1.823,1.224-2.932c0-1.107-0.427-2.146-1.211-2.93
	c-0.785-0.785-1.821-1.212-2.93-1.212c-1.106,0-2.155,0.438-2.94,1.212l-2.078,2.088c-0.681,0.681-1.695,0.865-2.652,0.703
	c-0.196-0.034-0.392-0.068-0.588-0.092c-0.565-0.058-0.889-0.715-0.484-1.119l4.036-4.038C19.169,0.95,20.957,0.2,22.86,0.2
	c1.916,0,3.701,0.75,5.051,2.089C29.249,3.638,30,5.427,30,7.343C30,9.246,29.249,11.035,27.911,12.385z"/>
</svg>
