<?xml version="1.0" encoding="utf-8"?>
<!-- Generator: Adobe Illustrator 16.0.0, SVG Export Plug-In . SVG Version: 6.00 Build 0)  -->
<!DOCTYPE svg PUBLIC "-//W3C//DTD SVG 1.1//EN" "http://www.w3.org/Graphics/SVG/1.1/DTD/svg11.dtd">
<svg version="1.1" id="Layer_1" xmlns="http://www.w3.org/2000/svg" xmlns:xlink="http://www.w3.org/1999/xlink" x="0px" y="0px"
	 width="36px" height="16.455px" viewBox="0 0 36 16.455" enable-background="new 0 0 36 16.455" xml:space="preserve">
<path id="Gears" fill="#FFFFFF" d="M33.747,4.863c0,1.443-1.171,2.613-2.613,2.613s-2.612-1.17-2.612-2.613
	c0-1.442,1.17-2.612,2.612-2.612S33.747,3.421,33.747,4.863z M31.121,0c-2.679,0-4.854,2.16-4.878,4.833l-3.04,4.356
	c-0.124-0.013-0.25-0.02-0.377-0.02c-0.68,0-1.313,0.186-1.858,0.512L7.2,4.145C6.84,2.512,5.38,1.281,3.643,1.281
	C1.636,1.281,0,2.923,0,4.929c0,2.007,1.636,3.643,3.643,3.643c0.68,0,1.314-0.187,1.859-0.512l13.767,5.526
	c0.356,1.638,1.816,2.87,3.558,2.87c1.887,0,3.442-1.446,3.622-3.286l4.673-3.417C33.814,9.752,36,7.571,36,4.879
	C36,2.185,33.814,0,31.121,0z M31.121,1.608c1.805,0,3.271,1.466,3.271,3.271s-1.467,3.266-3.271,3.266
	c-1.804,0-3.271-1.461-3.271-3.266S29.317,1.608,31.121,1.608z M3.643,2.246c1.029,0,1.917,0.575,2.366,1.421L4.678,3.135V3.14
	C3.605,2.755,2.413,3.279,1.985,4.346C1.556,5.413,2.049,6.62,3.09,7.084v0.005l1.13,0.452C4.035,7.582,3.841,7.607,3.643,7.607
	c-1.484,0-2.678-1.193-2.678-2.678C0.965,3.445,2.158,2.246,3.643,2.246z M22.826,10.135c1.484,0,2.678,1.193,2.678,2.677
	c0,1.484-1.193,2.679-2.678,2.679c-1.032,0-1.925-0.576-2.372-1.427c0.44,0.178,0.882,0.354,1.322,0.533
	c1.091,0.438,2.334-0.089,2.772-1.181c0.439-1.092-0.094-2.33-1.186-2.769L22.248,10.2C22.434,10.159,22.627,10.135,22.826,10.135z"
	/>
</svg>
