<?xml version="1.0" encoding="utf-8"?>
<!-- Generator: Adobe Illustrator 16.0.0, SVG Export Plug-In . SVG Version: 6.00 Build 0)  -->
<!DOCTYPE svg PUBLIC "-//W3C//DTD SVG 1.1//EN" "http://www.w3.org/Graphics/SVG/1.1/DTD/svg11.dtd">
<svg version="1.1" id="Layer_1" xmlns="http://www.w3.org/2000/svg" xmlns:xlink="http://www.w3.org/1999/xlink" x="0px" y="0px"
	 width="16px" height="16px" viewBox="0 0 16 16" enable-background="new 0 0 16 16" xml:space="preserve">
<path fill-rule="evenodd" clip-rule="evenodd" fill="#F06048" d="M8.02,13.034c0.247,0,0.72-0.027,0.72-0.027
	c0.773-0.106,1.487-0.38,2.113-0.786L9.86,11.274l4.847-0.526l-1.153,4.893l-0.787-1.166c-1.1,0.793-2.414,1.312-3.826,1.466
	l-0.054,0.007C8.761,15.961,8.64,15.975,8.52,15.98C8.347,15.994,8.173,16,7.993,16l-0.006-0.006L7.98,16
	c-1.121-0.013-2.187-0.253-3.154-0.68l-0.033-0.026C2.02,14.054,0.073,11.288,0,8.055l2.887-0.28C2.874,10.655,5.167,13,8.02,13.034
	z M13.106,8.221c0.02-2.873-2.273-5.226-5.133-5.252c-0.247-0.007-0.72,0.02-0.72,0.02C6.48,3.095,5.767,3.369,5.14,3.775l1,0.946
	L1.287,5.249L2.44,0.356l0.793,1.173c1.1-0.8,2.407-1.319,3.82-1.473l0.06-0.006c0.12-0.014,0.24-0.027,0.36-0.033
	C7.646,0.002,7.827-0.004,8,0.002h0.007H8.02c1.12,0.007,2.188,0.253,3.153,0.68l0.027,0.02c2.78,1.24,4.72,4.013,4.8,7.239
	L13.106,8.221z"/>
</svg>
