<?xml version="1.0" encoding="utf-8"?>
<!-- Generator: Adobe Illustrator 16.0.0, SVG Export Plug-In . SVG Version: 6.00 Build 0)  -->
<!DOCTYPE svg PUBLIC "-//W3C//DTD SVG 1.1//EN" "http://www.w3.org/Graphics/SVG/1.1/DTD/svg11.dtd">
<svg version="1.1" id="Layer_1" xmlns="http://www.w3.org/2000/svg" xmlns:xlink="http://www.w3.org/1999/xlink" x="0px" y="0px"
	 width="19.688px" height="16px" viewBox="0 0 19.688 16" enable-background="new 0 0 19.688 16" xml:space="preserve">
<g>
	<path fill="#FFFFFF" d="M6.192,16C3.911,16,1.788,15.331,0,14.186c0.316,0.037,0.638,0.056,0.963,0.056
		c1.893,0,3.634-0.646,5.017-1.729c-1.768-0.032-3.259-1.2-3.773-2.806c0.247,0.048,0.5,0.073,0.76,0.073
		c0.368,0,0.725-0.05,1.064-0.142c-1.848-0.371-3.24-2.004-3.24-3.961c0-0.017,0-0.034,0-0.051c0.545,0.302,1.167,0.484,1.83,0.505
		C1.537,5.408,0.824,4.171,0.824,2.77c0-0.74,0.199-1.434,0.547-2.031c1.992,2.444,4.968,4.052,8.326,4.22
		c-0.069-0.295-0.105-0.604-0.105-0.92C9.591,1.809,11.4,0,13.631,0c1.162,0,2.211,0.491,2.948,1.275
		c0.92-0.181,1.784-0.517,2.565-0.98c-0.302,0.943-0.942,1.735-1.776,2.235c0.817-0.098,1.596-0.315,2.319-0.636
		c-0.541,0.81-1.226,1.521-2.015,2.091c0.008,0.173,0.012,0.348,0.012,0.522C17.685,9.845,13.621,16,6.192,16"/>
</g>
</svg>
