<?xml version="1.0" encoding="utf-8"?>
<!-- Generator: Adobe Illustrator 16.0.0, SVG Export Plug-In . SVG Version: 6.00 Build 0)  -->
<!DOCTYPE svg PUBLIC "-//W3C//DTD SVG 1.1//EN" "http://www.w3.org/Graphics/SVG/1.1/DTD/svg11.dtd">
<svg version="1.1" id="Layer_1" xmlns="http://www.w3.org/2000/svg" xmlns:xlink="http://www.w3.org/1999/xlink" x="0px" y="0px"
	 width="16px" height="16px" viewBox="0 0 16 16" enable-background="new 0 0 16 16" xml:space="preserve">
<path fill-rule="evenodd" clip-rule="evenodd" fill="#FFFFFF" d="M3.178,9.28c0.036-0.008,0.072-0.008,0.117,0
	c0.036,0,0.094,0.015,0.13,0.028v0.016c0.16,0.05,0.306,0.174,0.233,0.378c-0.116,0.044-0.247-0.044-0.32-0.139
	C3.077,9.403,3.084,9.309,3.178,9.28z M4.662,7.259c0.051,0.007-0.015,0.079-0.087,0.058H4.56c-0.014,0-0.021-0.021-0.028-0.029
	C4.597,7.259,4.64,7.259,4.662,7.259z M6.182,6.662C6.378,6.625,6.778,6.771,6.4,6.997c0.124-0.124-0.08-0.081-0.117-0.073
	C6.043,6.756,6.072,6.684,6.182,6.662z M10.363,5.556c0.16-0.007,0.517,0.161,0.487,0.386c-0.159,0.254-0.589,0.233-0.422-0.146
	C10.254,5.636,10.27,5.564,10.363,5.556z M6.196,3.847c0.488-0.029,0.393,1.04-0.014,1.208c-0.349-0.328,0.117-0.8-0.087-1.178
	C6.139,3.861,6.167,3.847,6.196,3.847z M7.695,3.019c0.298-0.037,0.596,0.086,0.683,0.436c0.204,0.829-0.625,1.367-0.931,2.051
	c-0.763-0.219,0.043-1.055-0.284-1.47C6.698,3.564,7.2,3.084,7.695,3.019z M7.127,2.887c0.037,0,0.059,0.008,0.087,0.015
	c0.175,0,0.117,0.196,0,0.247C6.808,3.542,6.698,2.975,7.04,2.902C7.069,2.902,7.098,2.887,7.127,2.887z M4.997,1.767
	c0.996,0.342-0.509,1.404,0.247,1.818c0.072,0,0.139,0.022,0.197,0.044c0.021-0.022,0.028-0.007,0.028,0.014
	c0.342,0.161,0.415,0.64-0.138,0.611C4.56,4.036,4.254,5.672,5.011,5.469c0.276-0.771,1.113-0.443,1.258,0.24
	C6.72,6.4,5.804,6.393,5.491,6.691c0.313,0.575-0.56,0.276-0.887,0.552c-0.625,0.139-0.822,1.092-1.367,1.12
	C3.214,7.367,1.556,7.702,1.833,8.61c0.349,0.276,0.822,0.561,0.749,1.143c-0.022,1.236,1.491,0.829,2.168,1.483
	c0.821,0.364,1.36,1.113,2.087,1.601c0.632-0.219,1.927,0.385,1.302,1.141c-0.379,0.276-1.142,0.524-1.142,0.685v0.014
	C6,14.771,6.305,14.844,6.022,14.866c-0.567-0.168-1.156-0.415-1.644-0.714c-0.007-0.007-0.028-0.007-0.036-0.014
	c-0.218-0.647-0.836-1.055-1.251-1.579c-0.211-0.218-0.254-0.458-0.233-0.712c0,0-0.014-0.016-0.007-0.016
	c0.022-0.414,0.167-0.851-0.131-1.235C2.24,9.812,1.644,9.084,1.338,8.204C1.302,7.295,1.25,6.422,1.556,5.556
	C2.225,4.182,3.898,2.705,4.997,1.767z M8,0.814c2.837,0,5.295,1.651,6.458,4.051c0.007,0,0,0.007,0,0.014
	c0.015,0.087,0.022,0.167,0.015,0.262c0.065,0.05,0.131,0.131,0.203,0.218c0.168,0.407,0.284,0.844,0.364,1.287
	c-0.065,0.066-0.16,0.109-0.299,0.117c-0.748-0.582-0.021,0.647,0.386,0.422C15.163,7.454,15.186,7.724,15.186,8
	c0,1.774-0.654,3.39-1.731,4.647c0-0.044,0.015-0.102,0.037-0.189c0.494-0.61,0.399-1.803-0.611-1.673
	c-0.53,0.415-1.266,0.945-1.905,0.335c-0.669-0.604-0.356-1.601,0.015-2.276c0.378-0.546,0.502-1.353,1.163-1.629
	c0.655,0.146,1.462,0.102,1.695-0.699c0.211-0.356,0.094-0.473-0.095-0.567l-0.044-0.007c-0.218-0.095-0.494-0.167-0.523-0.487
	c0.196-0.334-0.218-1.019-0.378-0.4c0.334,0.378,0.414,1.527-0.393,1.098c0.283,0.465-1.041,0.167-0.786,0.814
	c0.211,0.706-1.2,1.098-0.8,0.204c0.232-0.662-0.102-1.651,0.479-2.073c0-0.021,0.052-0.109,0.029-0.014l0.059-0.044
	c0.509-0.355-0.647-1.41-0.582-0.756c0.502,0.262,0.226,0.786-0.255,0.524c-0.517-0.255-0.698-1.651,0.008-1.557
	c0.538,0.073,0.029-0.494-0.211-0.771c-0.029,0.131-0.073-0.022-0.051-0.036l-0.044-0.051c0.073-0.836-1.331-0.102-1.563-0.851
	C7.811,1.098,6.808,1.077,5.825,1.149C6.196,1.025,6.582,0.96,6.981,0.902l0.117-0.015c0.109-0.014,0.218-0.021,0.32-0.043
	C7.607,0.829,7.804,0.814,8,0.814z M8,0C3.585,0,0,3.585,0,8c0,4.415,3.585,8,8,8c4.415,0,8-3.585,8-8C16,3.585,12.415,0,8,0z"/>
</svg>
