<?xml version="1.0" encoding="utf-8"?>
<!-- Generator: Adobe Illustrator 16.0.0, SVG Export Plug-In . SVG Version: 6.00 Build 0)  -->
<!DOCTYPE svg PUBLIC "-//W3C//DTD SVG 1.1//EN" "http://www.w3.org/Graphics/SVG/1.1/DTD/svg11.dtd">
<svg version="1.1" id="Layer_1" xmlns="http://www.w3.org/2000/svg" xmlns:xlink="http://www.w3.org/1999/xlink" x="0px" y="0px"
	 width="18px" height="18px" viewBox="0 0 18 18" enable-background="new 0 0 18 18" xml:space="preserve">
<g>
	<path fill="#FFFFFF" d="M11.527,5.089c-0.037,0.06-0.071,0.119-0.107,0.179c1.178,1.428,4.984,6.066,4.639,9.248
		C17.273,13,18,11.085,18,9c0-2.557-1.092-4.859-2.838-6.482C13.739,2.789,12.311,4.047,11.527,5.089z"/>
	<path fill="#FFFFFF" d="M4.273,1.432c0.004-0.002,0.013,0.002,0.017,0c1.903-0.056,3.649,0.803,4.716,1.461
		c1.062-0.66,2.803-1.517,4.699-1.461c0.004,0.002,0.013-0.002,0.018,0c-0.018,0-2.339-1.33-4.723-1.33
		C6.949,0.102,4.29,1.432,4.273,1.432z"/>
	<path fill="#FFFFFF" d="M6.583,5.264C6.546,5.205,6.512,5.146,6.475,5.086c-0.783-1.04-2.211-2.293-3.637-2.568
		C1.092,4.143,0,6.443,0,9c0,2.077,0.723,3.984,1.928,5.5C1.585,11.32,5.4,6.691,6.583,5.264z"/>
	<path fill="#FFFFFF" d="M9.996,8.15C9.996,8.15,9.995,8.15,9.996,8.15c-0.319-0.27-0.645-0.545-0.994-0.828
		C8.652,7.602,8.33,7.877,8.011,8.146H8.01c-2.314,2.043-5.273,4.744-5.24,7.271c1.617,1.535,3.812,2.48,6.23,2.48
		c2.414,0,4.604-0.941,6.221-2.473C15.252,12.898,12.303,10.193,9.996,8.15z"/>
</g>
</svg>
