<?xml version="1.0" encoding="utf-8"?>
<!-- Generator: Adobe Illustrator 16.0.0, SVG Export Plug-In . SVG Version: 6.00 Build 0)  -->
<!DOCTYPE svg PUBLIC "-//W3C//DTD SVG 1.1//EN" "http://www.w3.org/Graphics/SVG/1.1/DTD/svg11.dtd">
<svg version="1.1" id="Layer_1" xmlns="http://www.w3.org/2000/svg" xmlns:xlink="http://www.w3.org/1999/xlink" x="0px" y="0px"
	 width="170.176px" height="33.357px" viewBox="0 0 170.176 33.357" enable-background="new 0 0 170.176 33.357"
	 xml:space="preserve">
<g id="g4201">
	<polygon id="polygon3015" fill="#FFFFFF" points="150.627,6.014 150.627,23.031 138.092,6.001 136.038,5.997 136.038,26.717 
		138.342,26.717 138.342,10.076 150.625,26.73 152.936,26.732 152.936,6.014 	"/>
	<path id="path3017" fill="#FFFFFF" d="M124.053,5.533c-5.826,0-9.898,4.456-9.898,10.835c0,6.389,4.072,10.844,9.898,10.844
		c5.82,0,9.879-4.455,9.879-10.844C133.932,9.989,129.874,5.533,124.053,5.533 M124.053,25.017c-4.438,0-7.549-3.557-7.549-8.649
		c0-5.088,3.111-8.645,7.549-8.645c4.432,0,7.523,3.557,7.523,8.645C131.577,21.46,128.485,25.017,124.053,25.017"/>
	<polygon id="polygon3019" fill="#FFFFFF" points="157.852,24.706 157.852,17.039 169.258,17.039 169.258,15.011 157.852,15.011 
		157.852,8.027 170.034,8.027 170.034,6 155.528,6 155.528,26.734 170.176,26.734 170.176,24.706 	"/>
	<polygon id="polygon3021" fill="#FFFFFF" points="107.661,26.752 101.038,17.76 94.417,26.752 91.688,26.752 99.655,15.887 
		92.381,6.013 95.108,6.013 101.038,14.067 106.961,6.013 109.686,6.013 102.417,15.887 110.385,26.752 	"/>
	<path id="path3023" fill="#FFFFFF" d="M71.195,16.672c-0.433-0.369-0.902-0.654-1.358-0.865c1.505-0.817,2.492-2.361,2.492-4.152
		c0-1.327-0.489-5.641-6.741-5.641h-8.421v8.94h-2.806c-0.365,0.474-1.19,1.613-1.506,2.081h4.312v9.715l8.421,0.001
		c4.562,0,7.396-2.317,7.396-6.054C72.984,19.064,72.367,17.676,71.195,16.672 M59.495,8.177h6.093c1.65,0,4.411,0.411,4.411,3.296
		c0,2.181-1.609,3.481-4.411,3.481h-6.093V8.177z M65.587,24.588h-6.093v-7.55h6.093c2.311,0,5.074,0.638,5.074,3.614
		C70.662,24.074,67.484,24.588,65.587,24.588"/>
	<path id="path3025" fill="#FFFFFF" d="M83.937,5.534c-5.824,0-9.896,4.456-9.896,10.835c0,6.389,4.071,10.842,9.896,10.842
		c5.821,0,9.88-4.453,9.88-10.842C93.817,9.99,89.758,5.534,83.937,5.534 M83.937,25.018c-4.438,0-7.546-3.557-7.546-8.648
		c0-5.088,3.108-8.644,7.546-8.644c4.43,0,7.524,3.556,7.524,8.644C91.461,21.461,88.367,25.018,83.937,25.018"/>
	<polygon id="polygon3027" fill="#FFFFFF" points="56.034,26.75 48.062,15.887 55.336,6.014 52.611,6.014 46.681,14.07 
		40.756,6.014 38.039,6.014 45.308,15.887 37.337,26.75 40.068,26.75 46.685,17.76 53.306,26.75 	"/>
	<g id="g3055" transform="translate(-1.2833333,0.93333333)">
		<g id="g3923" transform="matrix(-1,0,0,1,61.715049,-34.927083)">
		</g>
		<g id="g4049">
			<g id="g4160" transform="translate(-2.125,35.625)">
				<g>
					<path fill="#FFFFFF" d="M30.635-33.026c0.324,0.25,0.635,0.515,0.94,0.785C31.271-32.513,30.959-32.776,30.635-33.026z"/>
					<path fill="#FFFFFF" d="M29.202-34.015c0.401,0.245,0.787,0.512,1.164,0.79C29.989-33.504,29.603-33.768,29.202-34.015z"/>
					<path fill="#FFFFFF" d="M25.018-27.21c-0.074,0.116-0.128,0.226-0.198,0.34c2.198,2.667,9.327,11.347,8.69,17.318
						c2.271-2.842,3.638-6.424,3.638-10.327c0-4.795-2.058-9.104-5.334-12.147C29.151-31.512,26.482-29.16,25.018-27.21z"/>
					<path fill="#FFFFFF" d="M11.45-34.065c3.57-0.105,6.843,1.503,8.84,2.739c1.992-1.236,5.251-2.843,8.807-2.739
						c0.005,0.003,0.014,0.001,0.021,0c-2.573-1.571-5.594-2.493-8.84-2.493s-6.268,0.922-8.841,2.493
						C11.443-34.064,11.447-34.063,11.45-34.065z"/>
					<path fill="#FFFFFF" d="M33.256-9.227c0.021-0.024,0.042-0.05,0.063-0.074C33.299-9.276,33.277-9.253,33.256-9.227z"/>
					<path fill="#FFFFFF" d="M22.145-21.47c0,0,0,0.001,0,0.001c-0.597-0.508-1.206-1.026-1.861-1.555
						c-0.654,0.525-1.261,1.039-1.857,1.544c0,0,0,0,0-0.001C14.089-17.656,8.547-12.594,8.6-7.86
						c3.032,2.88,7.142,4.659,11.678,4.659c4.527,0,8.629-1.772,11.659-4.643C31.986-12.58,26.466-17.643,22.145-21.47z"/>
					<path fill="#FFFFFF" d="M15.742-26.876c-0.07-0.115-0.125-0.225-0.199-0.34c-1.466-1.944-4.137-4.289-6.803-4.809
						c-3.275,3.042-5.332,7.352-5.332,12.145c0,3.89,1.357,7.459,3.615,10.295C6.393-15.551,13.538-24.214,15.742-26.876z"/>
					<path fill="#FFFFFF" d="M9.227-32.461c0.182-0.155,0.363-0.312,0.552-0.459C9.59-32.772,9.408-32.617,9.227-32.461z"/>
					<path fill="#FFFFFF" d="M10.351-33.343c0.298-0.214,0.6-0.424,0.914-0.618C10.952-33.765,10.649-33.559,10.351-33.343z"/>
				</g>
			</g>
		</g>
	</g>
</g>
</svg>
